<svg width="46" height="46" viewBox="0 0 46 46" fill="none" xmlns="http://www.w3.org/2000/svg">
<path d="M19.7323 1.58658C21.4857 -0.337951 24.5143 -0.337951 26.2677 1.58658C27.4309 2.86327 29.2311 3.34562 30.8768 2.82157C33.3576 2.0316 35.9804 3.54589 36.5366 6.0893C36.9056 7.77653 38.2235 9.09436 39.9107 9.46336C42.4541 10.0196 43.9684 12.6424 43.1784 15.1232C42.6544 16.7689 43.1367 18.5691 44.4134 19.7323C46.338 21.4857 46.338 24.5143 44.4134 26.2677C43.1367 27.4309 42.6544 29.2311 43.1784 30.8768C43.9684 33.3576 42.4541 35.9804 39.9107 36.5366C38.2235 36.9056 36.9056 38.2235 36.5366 39.9107C35.9804 42.4541 33.3576 43.9684 30.8768 43.1784C29.2311 42.6544 27.4309 43.1367 26.2677 44.4134C24.5143 46.338 21.4857 46.338 19.7323 44.4134C18.5691 43.1367 16.7689 42.6544 15.1232 43.1784C12.6424 43.9684 10.0196 42.4541 9.46336 39.9107C9.09436 38.2235 7.77653 36.9056 6.0893 36.5366C3.54589 35.9804 2.0316 33.3576 2.82157 30.8768C3.34562 29.2311 2.86327 27.4309 1.58658 26.2677C-0.337951 24.5143 -0.337951 21.4857 1.58658 19.7323C2.86327 18.5691 3.34562 16.7689 2.82157 15.1232C2.0316 12.6424 3.54589 10.0196 6.0893 9.46336C7.77653 9.09436 9.09436 7.77653 9.46336 6.0893C10.0196 3.54589 12.6424 2.0316 15.1232 2.82157C16.7689 3.34562 18.5691 2.86327 19.7323 1.58658Z" fill="white"/>
</svg>
