<svg width="18" height="14" viewBox="0 0 18 14" fill="none" xmlns="http://www.w3.org/2000/svg">
<path fill-rule="evenodd" clip-rule="evenodd" d="M8.99935 1.54611C7.11232 1.54611 4.54208 1.70788 2.90991 1.82683C2.36787 1.86633 1.94807 2.29541 1.94807 2.8195V3.41172L8.4805 6.8429C8.80317 7.01238 9.19553 7.01238 9.5182 6.8429L16.0506 3.41172V2.8195C16.0506 2.29541 15.6308 1.86633 15.0888 1.82683C13.4566 1.70788 10.8864 1.54611 8.99935 1.54611ZM16.0506 4.79834L10.1408 7.90248C9.43094 8.27535 8.56776 8.27535 7.85788 7.90248L1.94807 4.79834V11.1818C1.94807 11.7059 2.36787 12.135 2.90991 12.1745C4.54208 12.2934 7.11232 12.4552 8.99935 12.4552C10.8864 12.4552 13.4566 12.2934 15.0888 12.1745C15.6308 12.135 16.0506 11.7059 16.0506 11.1818V4.79834ZM2.81138 0.618292C4.44453 0.499269 7.05825 0.333984 8.99935 0.333984C10.9405 0.333984 13.5542 0.499269 15.1873 0.618292C16.4078 0.707243 17.3327 1.67222 17.3327 2.8195V11.1818C17.3327 12.3291 16.4078 13.2941 15.1873 13.383C13.5542 13.502 10.9405 13.6673 8.99935 13.6673C7.05825 13.6673 4.44453 13.502 2.81138 13.383C1.59087 13.2941 0.666016 12.3291 0.666016 11.1818V2.8195C0.666016 1.67222 1.59087 0.707243 2.81138 0.618292Z" fill="white"/>
</svg>
