<svg width="25" height="20" viewBox="0 0 25 20" fill="none" xmlns="http://www.w3.org/2000/svg">
<path fill-rule="evenodd" clip-rule="evenodd" d="M20.6704 0.112571C20.5168 0.203637 17.9566 2.80201 14.9811 5.88651L9.57137 11.4949L7.02025 8.86396C5.61718 7.41706 4.32235 6.18658 4.14288 6.12979C3.40489 5.89624 2.96969 6.15579 1.46369 7.7273L0 9.25466V9.97738V10.7001L4.39874 15.2762C9.06508 20.1306 9.20936 20.2468 10.0982 19.864C10.311 19.7723 13.751 16.3005 17.7425 12.149L25 4.60068V3.87578V3.15103L23.5226 1.61466C22.238 0.278582 21.9739 0.0697248 21.4975 0.0124996C21.1962 -0.0236656 20.824 0.0213592 20.6704 0.112571Z" fill="#5600E1"/>
</svg>
