<svg  viewBox="0 0 36 30" fill="none" xmlns="http://www.w3.org/2000/svg">
<path d="M11.3213 29.626C24.9062 29.626 32.3366 18.371 32.3366 8.61066C32.3366 8.29098 32.3366 7.97274 32.315 7.65594C33.7606 6.61037 35.0084 5.31576 36 3.83274C34.6521 4.43034 33.2221 4.82207 31.7578 4.99482C33.2997 4.07185 34.4537 2.61999 35.005 0.909538C33.5551 1.76995 31.969 2.37628 30.3149 2.70234C29.2013 1.5182 27.7284 0.7341 26.1243 0.471365C24.5201 0.208629 22.8741 0.48191 21.441 1.24892C20.0078 2.01593 18.8673 3.2339 18.1961 4.71436C17.5249 6.19482 17.3603 7.85524 17.7278 9.43866C14.7913 9.29136 11.9186 8.52821 9.29618 7.19875C6.67373 5.86929 4.36015 4.00323 2.5056 1.7217C1.56109 3.34769 1.27181 5.27254 1.69665 7.10433C2.12149 8.93612 3.22851 10.5371 4.79232 11.5814C3.61685 11.5469 2.46697 11.2298 1.44 10.6569V10.7505C1.44047 12.4558 2.03078 14.1084 3.11081 15.428C4.19084 16.7477 5.69409 17.6532 7.3656 17.9908C6.27822 18.2874 5.13731 18.3308 4.03056 18.1175C4.50272 19.585 5.42164 20.8683 6.65886 21.7879C7.89607 22.7076 9.38974 23.2177 10.931 23.2468C9.39966 24.4505 7.64597 25.3405 5.77031 25.8658C3.89465 26.3911 1.93382 26.5415 0 26.3083C3.37775 28.4758 7.30789 29.6255 11.3213 29.6203" fill="#5B5959"/>
</svg>
